<svg style="height: 512px; width: 512px;" xmlns="http://www.w3.org/2000/svg" viewBox="0 0 512 512"><path d="M0 0h512v512H0z" fill="#000" fill-opacity="1"></path><g class="" style="" transform="translate(0,0)"><g><path d="M17.87 18.84L17.87 68.09C38.19 111.9 58.49 155.7 78.81 199.5C108.5 198.3 138.3 197.2 168 196.1C182.5 180.7 198.1 166.6 216 152.1L101.1 74.97L86.91 18.84L17.88 18.84Z" class="" fill="#00ffff" fill-opacity="1"></path><path d="M112.5 18.84C118.6 34.99 124.7 51.17 130.9 67.31C154.4 69.29 178 71.21 201.5 73.16L224.3 145.5C229.3 141.5 234.6 137.4 240 133.3C231.8 107.4 223.8 81.47 215.6 55.59C191.8 53.6 168 51.65 144.2 49.69L132.5 18.84Z" class="" fill="#00ffff" fill-opacity="1"></path><path d="M65.37 126.1L107.6 128.1L152 178L90.53 180.3Z" class="selected" fill="#000000" fill-opacity="1"></path><path d="M262.3 139.7C213.4 176.3 183 202.6 153.1 243.3C156.9 255.3 162.2 267.5 168.7 279.6L269.1 191.1L281.5 205.1L178.4 295.9C185.4 306.9 193.4 317.6 202.2 327.7L309.4 239.1L321.3 253.5L214.9 341.3C222.9 349.3 231.4 356.8 240.3 363.5L344 287.9L355 303L256.6 374.7C266.8 381.1 277.4 386.4 288.3 390.6C329.4 373.8 366.2 340.5 394.1 308C400.1 301 402.4 294 401.6 287.7C400.7 281.4 396.7 274.5 385.9 267.6L380.7 264.3L381.7 258.2C384.2 243 380.5 236.1 375.2 231.4C370 226.8 361.5 224.6 354.1 224.6L339.1 224.5L345.8 211C350.2 202.1 349.3 192.5 343.9 185.2C338.5 177.9 328.3 172.3 311.4 173.8L298.7 174.8L301.5 162.4C304.6 148.2 299.3 141.4 290.8 137.3C281.4 133.4 270.4 134.3 262.3 139.7Z" class="" fill="#fac82b" fill-opacity="1"></path><path d="M132.5 240C123.6 250.1 115.9 261.1 110.1 272.6C118.5 293.5 129.8 308.6 143.1 317.5C153.2 324.3 164.5 327.8 177.5 327.9C157.4 298.8 141.3 269.9 132.5 240Z" class="" fill="#fac82b" fill-opacity="1"></path><path d="M395.2 334.8C391 339.3 386.7 343.7 382.2 348.2L405.9 368.8L387.9 384.5L371 358.7C358.7 369.8 345.4 380.2 331.2 389.3L345.4 421.4C327.7 436.8 310 452.1 292.3 467.5C305.2 476.4 318 485.3 330.8 494.2L363.6 494.2L322.7 465.8L353.3 439.3L365 465.9L385.1 462.6L396.8 494.2L416.8 494.2L403.8 459.4L464.7 449.1L451.4 494.2L493.2 494.2L493.2 403.2L406.6 412.9L398.3 400.2C410.4 389.8 422.4 379.3 434.4 368.9C421.1 357.3 406.9 344.8 395.2 334.8Z" class="" fill="#00ffff" fill-opacity="1"></path></g></g></svg>