<svg style="height: 512px; width: 512px;" xmlns="http://www.w3.org/2000/svg" viewBox="0 0 512 512"><path d="M0 0h512v512H0z" fill="#000" fill-opacity="1"></path><g class="" style="" transform="translate(0,0)"><g><path d="M254.84 255.64C168.32 208.703 63.433 273.028 66.044 371.425C68.656 469.822 176.806 528.494 260.715 477.034C310.051 446.777 332.913 387.155 316.454 331.67C306.893 299.116 284.706 271.738 254.839 255.64Z" class="" fill="#fac82b" fill-opacity="1"></path><path d="M223.607 468.26C197.032 476.219 168.378 473.219 144.027 459.93C73.305 421.561 70.639 321.022 139.229 278.96C207.818 236.897 296.22 284.858 298.353 365.289C299.606 412.572 268.951 454.803 223.607 468.26Z" class="" fill="#000000" fill-opacity="1"></path><path d="M278.257 343.012C258.984 278.099 176.668 258.392 130.088 307.539C83.508 356.687 107.599 437.828 173.452 453.594C188.455 457.186 204.138 456.769 218.929 452.385C265.731 438.833 292.418 389.633 278.256 343.012Z" class="" fill="#fac82b" fill-opacity="1"></path><path d="M241.157 381.974C240.377 386.475 236.099 389.494 231.597 388.721L194.341 382.285C194.062 382.237 193.786 382.175 193.514 382.099L193.39 382.099C193.091 382.009 192.797 381.902 192.51 381.779L192.27 381.675C191.96 381.532 191.66 381.369 191.37 381.188L191.3 381.188L132.126 343.944C126.814 340.421 127.308 332.469 133.015 329.63C135.537 328.376 138.524 328.49 140.943 329.932L198.698 366.256L234.368 372.414C238.875 373.188 241.902 377.469 241.128 381.976Z" class="" fill="#000000" fill-opacity="1"></path><path d="M405.907 305.136C415.997 339.152 420.953 372.339 419.847 398.614C418.727 425.304 411.691 436.79 405.482 438.632C399.272 440.474 387.114 434.689 371.612 412.926C356.368 391.506 342.418 360.976 332.287 326.971C309.757 251.024 317.354 198.029 332.711 193.476C348.071 188.923 383.379 229.179 405.908 305.136Z" class="" fill="#a7851e" fill-opacity="1"></path><path d="M380.107 209.619C376.201 204.048 371.884 198.776 367.193 193.847C376.334 196.93 385.141 202.48 393.613 210.497C412.737 228.627 428.943 259.207 438.111 294.383C447.074 328.895 448.461 364.267 441.961 391.443C440.438 397.812 438.293 404.017 435.556 409.966C435.918 406.644 436.188 403.106 436.353 399.296C437.523 371.252 432.338 336.17 421.741 300.416C411.144 264.662 396.387 232.436 380.109 209.618Z" class="" fill="#fac82b" fill-opacity="1"></path><path d="M357.104 16.1L340.236 16.1L340.236 16.225C340.971 18.45 340.784 20.876 339.718 22.962C338.654 25.064 336.79 26.649 334.544 27.36C329.912 28.863 324.938 26.336 323.419 21.71L321.671 16.1L304.254 16.1L307.762 26.843C307.856 27.133 307.98 27.403 308.084 27.681C303.275 29.846 299.268 33.466 296.628 38.031L285.245 57.693C283.37 60.929 282.235 64.541 281.923 68.269C279.252 68.275 276.598 68.701 274.059 69.532L254.397 75.969C253.064 71.499 250.517 67.487 247.039 64.379L230.119 49.219C225.119 44.703 218.519 42.377 211.792 42.761C210.789 42.816 209.79 42.929 208.8 43.101C205.749 32.106 195.747 24.49 184.336 24.474L161.64 24.474C149.076 24.493 138.411 33.689 136.544 46.114C134.75 45.983 132.946 46.041 131.164 46.289C124.489 47.2 118.456 50.743 114.409 56.129L100.717 74.239C92.822 84.716 94.198 99.482 103.894 108.319C99.075 114.737 97.578 123.058 99.858 130.754L106.314 152.486C107.868 157.735 111.087 162.336 115.484 165.596C100.682 185.543 113.023 214.034 137.698 216.88C138.933 217.022 140.174 217.093 141.417 217.092L142.607 217.092L146.88 231.487C148.837 230.812 150.807 230.177 152.79 229.583C155.949 228.646 159.119 227.822 162.3 227.111L157.984 212.551C179.309 199.815 178.851 168.769 157.158 156.669C156.157 156.111 155.127 155.606 154.072 155.157C156.367 149.75 156.708 143.712 155.034 138.082L148.577 116.349C147.268 111.907 144.761 107.912 141.333 104.799L154.963 86.763C157.517 83.391 159.182 79.43 159.805 75.246C160.425 75.246 161.057 75.318 161.688 75.318L184.394 75.318C185.851 75.316 187.305 75.188 188.74 74.936C190.023 79.621 192.632 83.836 196.253 87.074L213.06 102.194C217.711 106.375 223.746 108.684 230 108.674C232.022 108.67 234.037 108.426 236.002 107.948C236.064 108.176 236.126 108.393 236.199 108.621C239.614 119.046 249.331 126.105 260.302 126.131C262.988 126.126 265.656 125.696 268.208 124.858L289.784 117.811C299.497 114.644 306.37 105.969 307.231 95.789C309.447 95.782 311.652 95.486 313.791 94.909C320.301 93.183 325.851 88.924 329.201 83.081L340.585 63.419C344.329 56.918 344.999 49.092 342.415 42.049C352.399 37.477 358.322 27.014 357.104 16.1Z" class="selected" fill="#fac82b" fill-opacity="1"></path><path d="M122.19 147.808L115.733 126.076C114.17 120.979 117.491 115.682 122.76 114.869C123.174 114.869 123.588 114.806 124.002 114.755L124.188 114.755C128.095 114.757 131.536 117.323 132.653 121.067L139.111 142.799C140.386 147.091 138.241 151.657 134.124 153.417C133.494 153.562 132.861 153.727 132.23 153.914L131.815 154.048C127.517 154.604 123.45 151.961 122.212 147.808Z" class="" fill="#000000" fill-opacity="1"></path><path d="M141.42 169.116C153.64 168.981 161.424 182.124 155.431 192.775C149.438 203.425 134.164 203.594 127.936 193.079C122.917 184.604 126.748 173.651 135.955 170.151C136.599 170.013 137.237 169.851 137.869 169.664L138.665 169.404C139.579 169.226 140.507 169.129 141.438 169.116Z" class="" fill="#000000" fill-opacity="1"></path><path d="M141.657 76.734L128.017 94.854C126.681 96.623 124.726 97.821 122.543 98.207C122.046 98.207 121.508 98.29 121.043 98.352C114.256 98.405 109.956 91.091 113.304 85.187C113.492 84.854 113.703 84.534 113.933 84.228L127.623 66.118C131.276 60.389 139.762 60.763 142.897 66.792C144.587 70.042 144.094 73.999 141.657 76.735Z" class="" fill="#000000" fill-opacity="1"></path><path d="M192.251 53.698C191.844 54.291 191.462 54.895 191.103 55.508C189.43 57.54 186.935 58.718 184.303 58.718L161.64 58.718C154.848 58.935 150.369 51.718 153.577 45.728C155.161 42.77 158.286 40.966 161.64 41.073L184.344 41.073C190.837 41.064 195.107 47.846 192.292 53.698Z" class="" fill="#000000" fill-opacity="1"></path><path d="M236.585 89.194C233.336 92.796 227.787 93.097 224.167 89.867L207.277 74.707C204.373 72.095 203.531 67.885 205.207 64.357C205.587 63.805 205.932 63.239 206.243 62.66C206.346 62.535 206.439 62.4 206.553 62.276C209.808 58.684 215.349 58.384 218.973 61.604L235.871 76.774C239.503 79.997 239.845 85.549 236.637 89.194Z" class="" fill="#000000" fill-opacity="1"></path><path d="M289.787 97.68C288.723 99.781 286.858 101.366 284.612 102.077L263.119 109.135C256.714 111.405 250.254 105.89 251.491 99.209C252.093 95.954 254.465 93.311 257.635 92.36L279.222 85.312C285.684 83.211 291.997 88.893 290.586 95.54C290.428 96.286 290.173 97.008 289.829 97.689Z" class="" fill="#000000" fill-opacity="1"></path><path d="M326.203 55.167L314.82 74.83C311.405 80.704 302.911 80.679 299.531 74.784C297.971 72.064 297.972 68.72 299.533 66L310.916 46.338C314.314 40.439 322.823 40.429 326.233 46.321C327.816 49.056 327.82 52.427 326.243 55.165Z" class="" fill="#000000" fill-opacity="1"></path></g></g></svg>